<mxfile host="app.diagrams.net" agent="Mozilla/5.0 (Windows NT 10.0; Win64; x64) AppleWebKit/537.36 (KHTML, like Gecko) Chrome/135.0.0.0 Safari/537.36" version="26.2.12">
  <diagram name="Page-1" id="5P9SGLe7xmmDswDCM_jk">
    <mxGraphModel dx="1428" dy="791" grid="1" gridSize="10" guides="1" tooltips="1" connect="1" arrows="1" fold="1" page="1" pageScale="1" pageWidth="850" pageHeight="1100" math="0" shadow="0">
      <root>
        <mxCell id="0" />
        <mxCell id="1" parent="0" />
        <mxCell id="Mcc6nPUHiSrDEOGoby0x-10" value="" style="edgeStyle=orthogonalEdgeStyle;rounded=0;orthogonalLoop=1;jettySize=auto;html=1;" edge="1" parent="1" source="Mcc6nPUHiSrDEOGoby0x-1" target="Mcc6nPUHiSrDEOGoby0x-2">
          <mxGeometry relative="1" as="geometry" />
        </mxCell>
        <mxCell id="Mcc6nPUHiSrDEOGoby0x-1" value="Target WiFi" style="ellipse;shape=cloud;whiteSpace=wrap;html=1;" vertex="1" parent="1">
          <mxGeometry x="630" y="330" width="160" height="100" as="geometry" />
        </mxCell>
        <mxCell id="Mcc6nPUHiSrDEOGoby0x-11" value="" style="edgeStyle=orthogonalEdgeStyle;rounded=0;orthogonalLoop=1;jettySize=auto;html=1;" edge="1" parent="1" source="Mcc6nPUHiSrDEOGoby0x-2" target="Mcc6nPUHiSrDEOGoby0x-4">
          <mxGeometry relative="1" as="geometry" />
        </mxCell>
        <mxCell id="Mcc6nPUHiSrDEOGoby0x-2" value="Yagi Antenna&lt;div&gt;2.4GHz, 17dBi&lt;/div&gt;" style="triangle;whiteSpace=wrap;html=1;" vertex="1" parent="1">
          <mxGeometry x="440" y="340" width="140" height="80" as="geometry" />
        </mxCell>
        <mxCell id="Mcc6nPUHiSrDEOGoby0x-13" value="" style="edgeStyle=orthogonalEdgeStyle;rounded=0;orthogonalLoop=1;jettySize=auto;html=1;" edge="1" parent="1" source="Mcc6nPUHiSrDEOGoby0x-4" target="Mcc6nPUHiSrDEOGoby0x-8">
          <mxGeometry relative="1" as="geometry" />
        </mxCell>
        <mxCell id="Mcc6nPUHiSrDEOGoby0x-4" value="ALFA Wireless Card" style="rounded=0;whiteSpace=wrap;html=1;" vertex="1" parent="1">
          <mxGeometry x="270" y="350" width="120" height="60" as="geometry" />
        </mxCell>
        <mxCell id="Mcc6nPUHiSrDEOGoby0x-7" value="Kismet&lt;div&gt;(Wi-Fi Recon Tool)&lt;/div&gt;" style="rounded=0;whiteSpace=wrap;html=1;" vertex="1" parent="1">
          <mxGeometry x="80" y="350" width="120" height="60" as="geometry" />
        </mxCell>
        <mxCell id="Mcc6nPUHiSrDEOGoby0x-8" value="listen: WLAN0Mon" style="text;html=1;align=center;verticalAlign=middle;whiteSpace=wrap;rounded=0;" vertex="1" parent="1">
          <mxGeometry x="140" y="320" width="60" height="30" as="geometry" />
        </mxCell>
        <mxCell id="Mcc6nPUHiSrDEOGoby0x-14" value="Pi 5" style="rounded=0;whiteSpace=wrap;html=1;" vertex="1" parent="1">
          <mxGeometry x="80" y="410" width="120" height="60" as="geometry" />
        </mxCell>
      </root>
    </mxGraphModel>
  </diagram>
</mxfile>
